<mxfile host="65bd71144e">
    <diagram id="9J6Mbx7q5wan-_kdgHGX" name="delete">
        <mxGraphModel dx="596" dy="478" grid="1" gridSize="10" guides="1" tooltips="1" connect="1" arrows="1" fold="1" page="1" pageScale="1" pageWidth="850" pageHeight="1100" math="0" shadow="0">
            <root>
                <mxCell id="0"/>
                <mxCell id="1" parent="0"/>
                <mxCell id="3" value="http://avis.test/delete/avis?id=2" style="text;html=1;strokeColor=none;fillColor=none;align=center;verticalAlign=middle;whiteSpace=wrap;rounded=0;" parent="1" vertex="1">
                    <mxGeometry x="110" y="70" width="280" height="30" as="geometry"/>
                </mxCell>
                <mxCell id="4" value="Controller&lt;br&gt;AvisController" style="rounded=0;whiteSpace=wrap;html=1;" parent="1" vertex="1">
                    <mxGeometry x="190" y="130" width="120" height="60" as="geometry"/>
                </mxCell>
                <mxCell id="5" value="" style="endArrow=classic;html=1;exitX=0.5;exitY=1;exitDx=0;exitDy=0;entryX=0.5;entryY=0;entryDx=0;entryDy=0;" parent="1" source="3" target="4" edge="1">
                    <mxGeometry width="50" height="50" relative="1" as="geometry">
                        <mxPoint x="220" y="200" as="sourcePoint"/>
                        <mxPoint x="270" y="150" as="targetPoint"/>
                    </mxGeometry>
                </mxCell>
                <mxCell id="6" value="Méthode&lt;br&gt;delete()" style="rounded=1;whiteSpace=wrap;html=1;" parent="1" vertex="1">
                    <mxGeometry x="190" y="220" width="120" height="60" as="geometry"/>
                </mxCell>
                <mxCell id="7" value="" style="endArrow=classic;html=1;exitX=0.5;exitY=1;exitDx=0;exitDy=0;entryX=0.5;entryY=0;entryDx=0;entryDy=0;" parent="1" source="4" target="6" edge="1">
                    <mxGeometry width="50" height="50" relative="1" as="geometry">
                        <mxPoint x="220" y="200" as="sourcePoint"/>
                        <mxPoint x="270" y="150" as="targetPoint"/>
                    </mxGeometry>
                </mxCell>
                <mxCell id="8" value="Repository&lt;br&gt;AvisRepository" style="shape=cylinder3;whiteSpace=wrap;html=1;boundedLbl=1;backgroundOutline=1;size=15;" parent="1" vertex="1">
                    <mxGeometry x="430" y="210" width="130" height="80" as="geometry"/>
                </mxCell>
                <mxCell id="9" value="" style="endArrow=classic;html=1;exitX=1.004;exitY=0.673;exitDx=0;exitDy=0;exitPerimeter=0;" parent="1" source="6" edge="1">
                    <mxGeometry width="50" height="50" relative="1" as="geometry">
                        <mxPoint x="290" y="220" as="sourcePoint"/>
                        <mxPoint x="430" y="260" as="targetPoint"/>
                    </mxGeometry>
                </mxCell>
                <mxCell id="10" value="ID" style="text;html=1;strokeColor=none;fillColor=none;align=center;verticalAlign=middle;whiteSpace=wrap;rounded=0;" parent="1" vertex="1">
                    <mxGeometry x="340" y="260" width="60" height="30" as="geometry"/>
                </mxCell>
                <mxCell id="11" value="" style="endArrow=classic;html=1;entryX=1.008;entryY=0.321;entryDx=0;entryDy=0;entryPerimeter=0;" parent="1" target="6" edge="1">
                    <mxGeometry width="50" height="50" relative="1" as="geometry">
                        <mxPoint x="430" y="239" as="sourcePoint"/>
                        <mxPoint x="340" y="170" as="targetPoint"/>
                    </mxGeometry>
                </mxCell>
                <mxCell id="12" value="Success ?" style="text;html=1;strokeColor=none;fillColor=none;align=center;verticalAlign=middle;whiteSpace=wrap;rounded=0;" parent="1" vertex="1">
                    <mxGeometry x="340" y="210" width="60" height="30" as="geometry"/>
                </mxCell>
                <mxCell id="13" value="Redirige l'utilisateur vers&lt;br&gt;une nouvelle route" style="shape=parallelogram;perimeter=parallelogramPerimeter;whiteSpace=wrap;html=1;fixedSize=1;" parent="1" vertex="1">
                    <mxGeometry x="160" y="340" width="180" height="60" as="geometry"/>
                </mxCell>
                <mxCell id="14" value="" style="endArrow=classic;html=1;entryX=0.5;entryY=0;entryDx=0;entryDy=0;exitX=0.5;exitY=1;exitDx=0;exitDy=0;" parent="1" source="6" target="13" edge="1">
                    <mxGeometry width="50" height="50" relative="1" as="geometry">
                        <mxPoint x="270" y="280" as="sourcePoint"/>
                        <mxPoint x="320" y="230" as="targetPoint"/>
                    </mxGeometry>
                </mxCell>
            </root>
        </mxGraphModel>
    </diagram>
    <diagram id="RCTAhK1uvA5S_WtRL4MJ" name="edit">
        <mxGraphModel dx="596" dy="478" grid="1" gridSize="10" guides="1" tooltips="1" connect="1" arrows="1" fold="1" page="1" pageScale="1" pageWidth="850" pageHeight="1100" math="0" shadow="0">
            <root>
                <mxCell id="E_h7FZ8eol4tUXwh3QTp-0"/>
                <mxCell id="E_h7FZ8eol4tUXwh3QTp-1" parent="E_h7FZ8eol4tUXwh3QTp-0"/>
                <mxCell id="u-8gFIx9SxFfW8uByj6G-3" value="http://avis.test/delete/avis?id=2" style="text;html=1;strokeColor=none;fillColor=none;align=center;verticalAlign=middle;whiteSpace=wrap;rounded=0;" vertex="1" parent="E_h7FZ8eol4tUXwh3QTp-1">
                    <mxGeometry x="210" y="20" width="280" height="30" as="geometry"/>
                </mxCell>
                <mxCell id="u-8gFIx9SxFfW8uByj6G-4" value="Controller&lt;br&gt;AvisController" style="rounded=0;whiteSpace=wrap;html=1;" vertex="1" parent="E_h7FZ8eol4tUXwh3QTp-1">
                    <mxGeometry x="290" y="80" width="120" height="60" as="geometry"/>
                </mxCell>
                <mxCell id="u-8gFIx9SxFfW8uByj6G-5" value="" style="endArrow=classic;html=1;exitX=0.5;exitY=1;exitDx=0;exitDy=0;entryX=0.5;entryY=0;entryDx=0;entryDy=0;" edge="1" parent="E_h7FZ8eol4tUXwh3QTp-1" target="u-8gFIx9SxFfW8uByj6G-4">
                    <mxGeometry width="50" height="50" relative="1" as="geometry">
                        <mxPoint x="350" y="50" as="sourcePoint"/>
                        <mxPoint x="370" y="100" as="targetPoint"/>
                    </mxGeometry>
                </mxCell>
                <mxCell id="u-8gFIx9SxFfW8uByj6G-6" value="Méthode&lt;br&gt;delete()" style="rounded=1;whiteSpace=wrap;html=1;" vertex="1" parent="E_h7FZ8eol4tUXwh3QTp-1">
                    <mxGeometry x="290" y="170" width="120" height="60" as="geometry"/>
                </mxCell>
                <mxCell id="u-8gFIx9SxFfW8uByj6G-7" value="" style="endArrow=classic;html=1;exitX=0.5;exitY=1;exitDx=0;exitDy=0;entryX=0.5;entryY=0;entryDx=0;entryDy=0;" edge="1" parent="E_h7FZ8eol4tUXwh3QTp-1" source="u-8gFIx9SxFfW8uByj6G-4" target="u-8gFIx9SxFfW8uByj6G-6">
                    <mxGeometry width="50" height="50" relative="1" as="geometry">
                        <mxPoint x="320" y="150" as="sourcePoint"/>
                        <mxPoint x="370" y="100" as="targetPoint"/>
                    </mxGeometry>
                </mxCell>
                <mxCell id="u-8gFIx9SxFfW8uByj6G-8" value="Repository&lt;br&gt;AvisRepository" style="shape=cylinder3;whiteSpace=wrap;html=1;boundedLbl=1;backgroundOutline=1;size=15;" vertex="1" parent="E_h7FZ8eol4tUXwh3QTp-1">
                    <mxGeometry x="530" y="160" width="130" height="80" as="geometry"/>
                </mxCell>
                <mxCell id="u-8gFIx9SxFfW8uByj6G-9" value="" style="endArrow=classic;html=1;exitX=1.004;exitY=0.673;exitDx=0;exitDy=0;exitPerimeter=0;" edge="1" parent="E_h7FZ8eol4tUXwh3QTp-1" source="u-8gFIx9SxFfW8uByj6G-6">
                    <mxGeometry width="50" height="50" relative="1" as="geometry">
                        <mxPoint x="390" y="170" as="sourcePoint"/>
                        <mxPoint x="530" y="210" as="targetPoint"/>
                    </mxGeometry>
                </mxCell>
                <mxCell id="u-8gFIx9SxFfW8uByj6G-10" value="ID" style="text;html=1;strokeColor=none;fillColor=none;align=center;verticalAlign=middle;whiteSpace=wrap;rounded=0;" vertex="1" parent="E_h7FZ8eol4tUXwh3QTp-1">
                    <mxGeometry x="440" y="210" width="60" height="30" as="geometry"/>
                </mxCell>
                <mxCell id="u-8gFIx9SxFfW8uByj6G-11" value="" style="endArrow=classic;html=1;entryX=1.008;entryY=0.321;entryDx=0;entryDy=0;entryPerimeter=0;" edge="1" parent="E_h7FZ8eol4tUXwh3QTp-1" target="u-8gFIx9SxFfW8uByj6G-6">
                    <mxGeometry width="50" height="50" relative="1" as="geometry">
                        <mxPoint x="530" y="189" as="sourcePoint"/>
                        <mxPoint x="440" y="120" as="targetPoint"/>
                    </mxGeometry>
                </mxCell>
                <mxCell id="u-8gFIx9SxFfW8uByj6G-12" value="Success ?" style="text;html=1;strokeColor=none;fillColor=none;align=center;verticalAlign=middle;whiteSpace=wrap;rounded=0;" vertex="1" parent="E_h7FZ8eol4tUXwh3QTp-1">
                    <mxGeometry x="440" y="160" width="60" height="30" as="geometry"/>
                </mxCell>
                <mxCell id="u-8gFIx9SxFfW8uByj6G-13" value="Redirige l'utilisateur vers&lt;br&gt;une nouvelle route" style="shape=parallelogram;perimeter=parallelogramPerimeter;whiteSpace=wrap;html=1;fixedSize=1;" vertex="1" parent="E_h7FZ8eol4tUXwh3QTp-1">
                    <mxGeometry x="260" y="290" width="180" height="60" as="geometry"/>
                </mxCell>
                <mxCell id="u-8gFIx9SxFfW8uByj6G-14" value="" style="endArrow=classic;html=1;entryX=0.5;entryY=0;entryDx=0;entryDy=0;exitX=0.5;exitY=1;exitDx=0;exitDy=0;" edge="1" parent="E_h7FZ8eol4tUXwh3QTp-1" source="u-8gFIx9SxFfW8uByj6G-6" target="u-8gFIx9SxFfW8uByj6G-13">
                    <mxGeometry width="50" height="50" relative="1" as="geometry">
                        <mxPoint x="370" y="230" as="sourcePoint"/>
                        <mxPoint x="420" y="180" as="targetPoint"/>
                    </mxGeometry>
                </mxCell>
            </root>
        </mxGraphModel>
    </diagram>
</mxfile>